<svg xmlns="http://www.w3.org/2000/svg" version="1.1" xmlns:xlink="http://www.w3.org/1999/xlink" xmlns:svgjs="http://svgjs.dev/svgjs" width="1440" height="560" preserveAspectRatio="none" viewBox="0 0 1440 560"><g mask="url(&quot;#SvgjsMask1005&quot;)" fill="none"><rect width="1440" height="560" x="0" y="0" fill="rgba(71, 14, 14, 1)"></rect><path d="M 0,102 C 57.6,124 172.8,218.2 288,212 C 403.2,205.8 460.8,69.8 576,71 C 691.2,72.2 748.8,222.2 864,218 C 979.2,213.8 1036.8,38.8 1152,50 C 1267.2,61.2 1382.4,229.2 1440,274L1440 560L0 560z" fill="rgba(126, 24, 24, 1)"></path><path d="M 0,532 C 96,504.2 288,391.8 480,393 C 672,394.2 768,551.8 960,538 C 1152,524.2 1344,366.8 1440,324L1440 560L0 560z" fill="rgba(219, 11, 11, 1)"></path></g><defs><mask id="SvgjsMask1005"><rect width="1440" height="560" fill="#ffffff"></rect></mask></defs></svg>